# xmcd
#
# Track frame offsets:
#	150
#	20568
#	43432
#	65211
#	89928
#	113969
#	132605
#	154244
#	173182
#	193229
#	212433
#	227545
#	258618
#
# Disc length: 4401 seconds
#
# Revision: 4
# Processed by: cddbd v1.5PL3 Copyright (c) Steve Scherf et al.
# Submitted via: dBpowerAMP V4.0
#
DISCID=cf112f0d
DTITLE=김장훈 - INNOCENCE
DYEAR=2000
DGENRE=blues
TTITLE0=혼잣말
TTITLE1=지난겨울 Feat. 엄정화(Christmas Version)
TTITLE2=바보
TTITLE3=난 남자다
TTITLE4=마음의 계절
TTITLE5=너의 애기를
TTITLE6=또 다른 나를 찾아
TTITLE7=우리 기쁜날
TTITLE8=영화처럼
TTITLE9=ELLY, My Love
TTITLE10=그럴수만 있다면
TTITLE11=제발
TTITLE12=DATA
EXTD=
EXTT0=
EXTT1=
EXTT2=
EXTT3=
EXTT4=
EXTT5=
EXTT6=
EXTT7=
EXTT8=
EXTT9=
EXTT10=
EXTT11=
EXTT12=
PLAYORDER=
